<svg xmlns="http://www.w3.org/2000/svg" xmlns:xlink="http://www.w3.org/1999/xlink" class="timmy-svg" version="1.1" x="0px" y="0px" viewBox="0 0 100 100" enable-background="new 0 0 100 100" xml:space="preserve"><g><circle cx="84.8" cy="62.3" r="1.6"/><path d="M84.6,50.4c0-0.3,0-0.5,0-0.8c0-8.7-7.3-15.9-16.2-15.9c-5.3,0-10,2.5-12.9,6.3   c-20.4,0.2-36.4,13.4-37.3,30.6C12.4,69.9,8,65,8,59.1c0-4.1,1.9-7.2,5.7-9.1c12.1-6.2,10.4-13.8,9.8-16.3   c-0.6-2.6-2.2-4.9-4.5-6.2c-2.1-1.2-4.5-1.4-7-0.6c-3.6,1.2-4.9,4.3-4.9,6.5c0,3.2,2.4,5.2,4.8,5.6c2.2,0.3,4-0.7,4.6-2.6   c0.2-0.8-0.2-1.6-1-1.8c-0.8-0.2-1.6,0.2-1.8,1c-0.2,0.7-1.1,0.6-1.4,0.6c-0.9-0.1-2.3-1-2.3-2.7c0-0.7,0.2-2.9,2.9-3.8   c1.7-0.5,3.3-0.4,4.7,0.4c1.5,0.9,2.7,2.5,3.1,4.3c0.5,2.4,1.8,7.9-8.3,13.1C7.6,49.8,5,53.9,5,59.1c0,7.5,5.8,13.7,13.1,14.5v0.1   h76.6v-1.5C94.8,63.8,91.3,56.3,84.6,50.4z M21.1,70.7C22,55.7,35.8,43.9,53.7,43.1c-0.9,2-1.4,4.2-1.4,6.6c0,4.8,2.2,9.4,6.1,12.4   c0.6,0.5,1.6,0.4,2.1-0.2c0.5-0.6,0.4-1.6-0.2-2.1c-3.1-2.5-5-6.1-5-10.1c0-7.1,6-12.9,13.3-12.9c7.3,0,13.3,5.8,13.3,12.9   c0,0.4,0,0.9-0.1,1.3l-0.1,0.8l0.6,0.5c5.9,5.1,9.2,11.5,9.6,18.6H21.1z"/></g></svg>